<svg width="95" height="95" viewBox="0 0 95 95" fill="none" xmlns="http://www.w3.org/2000/svg">
<g filter="url(#filter0_dd_5_1062)">
<path d="M15 21C15 12.1634 22.1634 5 31 5H63.0277C71.8643 5 79.0277 12.1634 79.0277 21V53.0277C79.0277 61.8643 71.8643 69.0277 63.0277 69.0277H31C22.1634 69.0277 15 61.8643 15 53.0277V21Z" fill="url(#paint0_linear_5_1062)"/>
<g clip-path="url(#clip0_5_1062)">
<path d="M43.6376 24.0095C45.0865 24.0095 46.2635 25.1865 46.2635 26.6354V45.3916C46.2635 46.8405 45.0865 48.0175 43.6376 48.0175C42.2825 48.0175 41.1665 46.9906 41.0258 45.6682C40.782 45.7339 40.5241 45.7667 40.2615 45.7667C38.6063 45.7667 37.2605 44.421 37.2605 42.7657C37.2605 42.4187 37.3215 42.0811 37.4293 41.7716C36.0132 41.2371 35.0098 39.8679 35.0098 38.2642C35.0098 36.7684 35.8866 35.4742 37.1574 34.874C36.7494 34.3629 36.5103 33.7159 36.5103 33.0125C36.5103 31.573 37.5231 30.3726 38.8735 30.0772C38.7985 29.8193 38.761 29.5426 38.761 29.2613C38.761 27.8592 39.7269 26.6776 41.0258 26.3494C41.1665 25.0364 42.2825 24.0095 43.6376 24.0095ZM50.3898 24.0095C51.745 24.0095 52.8563 25.0364 53.0016 26.3494C54.3052 26.6776 55.2665 27.8545 55.2665 29.2613C55.2665 29.5426 55.2289 29.8193 55.1539 30.0772C56.5044 30.3679 57.5172 31.573 57.5172 33.0125C57.5172 33.7159 57.2781 34.3629 56.8701 34.874C58.1408 35.4742 59.0177 36.7684 59.0177 38.2642C59.0177 39.8679 58.0142 41.2371 56.5982 41.7716C56.706 42.0811 56.767 42.4187 56.767 42.7657C56.767 44.421 55.4212 45.7667 53.766 45.7667C53.5034 45.7667 53.2455 45.7339 53.0016 45.6682C52.861 46.9906 51.745 48.0175 50.3898 48.0175C48.9409 48.0175 47.764 46.8405 47.764 45.3916V26.6354C47.764 25.1865 48.9409 24.0095 50.3898 24.0095Z" fill="white"/>
</g>
</g>
<defs>
<filter id="filter0_dd_5_1062" x="0" y="0" width="94.0278" height="94.0278" filterUnits="userSpaceOnUse" color-interpolation-filters="sRGB">
<feFlood flood-opacity="0" result="BackgroundImageFix"/>
<feColorMatrix in="SourceAlpha" type="matrix" values="0 0 0 0 0 0 0 0 0 0 0 0 0 0 0 0 0 0 127 0" result="hardAlpha"/>
<feOffset dy="10"/>
<feGaussianBlur stdDeviation="7.5"/>
<feColorMatrix type="matrix" values="0 0 0 0 0 0 0 0 0 0 0 0 0 0 0 0 0 0 0.1 0"/>
<feBlend mode="normal" in2="BackgroundImageFix" result="effect1_dropShadow_5_1062"/>
<feColorMatrix in="SourceAlpha" type="matrix" values="0 0 0 0 0 0 0 0 0 0 0 0 0 0 0 0 0 0 127 0" result="hardAlpha"/>
<feOffset dy="4"/>
<feGaussianBlur stdDeviation="3"/>
<feColorMatrix type="matrix" values="0 0 0 0 0 0 0 0 0 0 0 0 0 0 0 0 0 0 0.1 0"/>
<feBlend mode="normal" in2="effect1_dropShadow_5_1062" result="effect2_dropShadow_5_1062"/>
<feBlend mode="normal" in="SourceGraphic" in2="effect2_dropShadow_5_1062" result="shape"/>
</filter>
<linearGradient id="paint0_linear_5_1062" x1="-7.63721" y1="27.6372" x2="37.6372" y2="72.9116" gradientUnits="userSpaceOnUse">
<stop stop-color="#A855F7"/>
<stop offset="1" stop-color="#4F46E5"/>
</linearGradient>
<clipPath id="clip0_5_1062">
<path d="M35.0098 24.0095H59.0177V48.0175H35.0098V24.0095Z" fill="white"/>
</clipPath>
</defs>
</svg>
